<svg width="150" height="143" viewBox="0 0 150 143" fill="none" xmlns="http://www.w3.org/2000/svg">
<g id="Group 15">
<path id="Vector" d="M69.259 61.6958C69.259 61.6958 43.0391 70.2601 31.9791 60.7274C20.9191 51.1948 15.1654 35.565 23.2565 25.8785C29.8746 19.8487 32.8145 18.754 40.5273 20.4074L42.7304 21.5069C42.7304 21.5069 38.9421 8.86541 54.0929 5.29185C69.2437 1.71829 80.5048 17.1184 81.1222 18.6685C82.9912 23.3565 84.1774 32.7167 81.9987 39.3336C78.2209 50.8005 71.2777 60.6724 71.2777 60.6724L69.259 61.6958Z" fill="#99EB5E"/>
<path id="Vector_2" d="M87.9362 72.2943C87.9362 72.2943 78.0574 46.6366 87.0748 35.1674C96.0922 23.6981 111.486 17.2069 121.599 24.7781C127.972 31.0641 129.214 33.9343 127.935 41.687L126.941 43.9323C126.941 43.9323 139.434 39.5427 143.763 54.4363C148.092 69.3298 133.199 81.2876 131.675 81.9779C127.065 84.0674 117.735 85.7075 110.991 83.8658C99.3044 80.6723 89.0618 74.2518 89.0618 74.2518L87.9362 72.2943Z" fill="#99EB5E"/>
<path id="Vector_3" d="M60.5164 81.519C60.5164 81.519 66.4581 108.353 55.83 118.361C45.2018 128.37 29.0107 132.512 20.1391 123.528C14.7744 116.369 13.9739 113.347 16.3954 105.87L17.7138 103.797C17.7138 103.797 4.70463 106.289 2.64534 90.9207C0.586053 75.552 17.097 65.9299 18.7074 65.4728C23.5781 64.0884 33.049 63.8466 39.4431 66.6654C50.5239 71.5523 59.6952 79.4167 59.6952 79.4167L60.5164 81.519Z" fill="#99EB5E"/>
<path id="Vector_4" d="M81.6489 83.5475C81.6489 83.5475 108.963 79.6384 118.196 90.9357C127.429 102.233 130.376 118.619 120.721 126.763C113.154 131.559 110.068 132.13 102.759 129.17L100.781 127.707C100.781 127.707 102.312 140.811 86.7682 141.715C71.2247 142.62 62.8145 125.509 62.4763 123.876C61.4515 118.936 61.9124 109.513 65.2098 103.372C70.9263 92.731 79.4826 84.2069 79.4826 84.2069L81.6489 83.5475Z" fill="#99EB5E"/>
</g>
</svg>
