<svg width="108" height="103" viewBox="0 0 108 103" fill="none" xmlns="http://www.w3.org/2000/svg">
<g id="Group 15">
<path id="Vector" d="M50.1173 44.4169C50.1173 44.4169 31.4083 50.5408 23.5165 43.7245C15.6247 36.9081 11.5192 25.7319 17.2925 18.8055C22.0148 14.4939 24.1125 13.7111 29.616 14.8934L31.1879 15.6797C31.1879 15.6797 28.4848 6.64028 39.2956 4.08501C50.1063 1.52974 58.1415 12.5416 58.582 13.65C59.9157 17.0022 60.7621 23.6953 59.2075 28.4267C56.5119 36.6262 51.5577 43.6851 51.5577 43.6851L50.1173 44.4169Z" fill="#99EB5E"/>
<path id="Vector_2" d="M63.444 51.9954C63.444 51.9954 56.3951 33.6487 62.8294 25.4476C69.2636 17.2465 80.2475 12.6049 87.4637 18.0187C92.0112 22.5136 92.8977 24.5659 91.985 30.1095L91.2753 31.715C91.2753 31.715 100.19 28.5763 103.279 39.226C106.367 49.8757 95.7411 58.4261 94.6534 58.9197C91.3639 60.4138 84.7067 61.5866 79.8948 60.2697C71.5558 57.9861 64.2472 53.3951 64.2472 53.3951L63.444 51.9954Z" fill="#99EB5E"/>
<path id="Vector_3" d="M43.8789 58.5916C43.8789 58.5916 48.1186 77.7796 40.535 84.9359C32.9514 92.0923 21.3984 95.0541 15.0682 88.6306C11.2402 83.5115 10.669 81.3505 12.3968 76.0037L13.3376 74.5212C13.3376 74.5212 4.055 76.3037 2.58559 65.3142C1.11618 54.3248 12.8974 47.4444 14.0465 47.1176C17.5219 46.1277 24.2798 45.9548 28.8423 47.9704C36.7489 51.4648 43.2929 57.0883 43.2929 57.0883L43.8789 58.5916Z" fill="#99EB5E"/>
<path id="Vector_4" d="M58.9578 60.042C58.9578 60.042 78.4472 57.2468 85.0356 65.325C91.6241 73.4032 93.7263 85.1203 86.8374 90.9433C81.4377 94.3729 79.2358 94.781 74.021 92.6646L72.6094 91.6184C72.6094 91.6184 73.7016 100.989 62.6107 101.635C51.5198 102.282 45.5187 90.0469 45.2774 88.879C44.5462 85.3469 44.875 78.6087 47.2279 74.2178C51.3068 66.6087 57.4121 60.5135 57.4121 60.5135L58.9578 60.042Z" fill="#99EB5E"/>
</g>
</svg>
